<svg width="23" height="24" viewBox="0 0 23 24" fill="none" xmlns="http://www.w3.org/2000/svg">
<path d="M22.5 9H21V16.5H22.5V21H18V19.5938L13.5 21.832V24H9V21.832L4.5 19.5938V21H0V16.5H1.5V9H0V4.5H4.32422L9 2.16797V0H13.5V2.16797L18.1758 4.5H22.5V9ZM19.5 6V7.5H21V6H19.5ZM10.5 1.5V3H12V1.5H10.5ZM13.5 4.5H9V3.83203L4.5 6.09375V6.66797L9 8.90625V7.5H13.5V8.90625L18 6.66797V6.09375L13.5 3.83203V4.5ZM10.5 10.5H12V9H10.5V10.5ZM1.5 6V7.5H3V6H1.5ZM3 19.5V18H1.5V19.5H3ZM4.5 17.9062L9 20.168V19.5H10.5V12H9V10.5938L4.5 8.33203V9H3V16.5H4.5V17.9062ZM12 22.5V21H10.5V22.5H12ZM21 19.5V18H19.5V19.5H21ZM19.5 16.5V9H18V8.33203L13.5 10.5938V12H12V19.5H13.5V20.168L18 17.9062V16.5H19.5Z" fill="black"/>
</svg>
