<svg width="150" height="150" viewBox="0 0 150 150" fill="none" xmlns="http://www.w3.org/2000/svg">
<path d="M70.3125 0C76.8066 0 83.0322 0.830078 88.9893 2.49023C94.9463 4.15039 100.562 6.49414 105.835 9.52148C111.108 12.5488 115.845 16.2109 120.044 20.5078C124.243 24.8047 127.905 29.5654 131.03 34.79C134.155 40.0146 136.523 45.6055 138.135 51.5625C139.746 57.5195 140.576 63.7695 140.625 70.3125C140.625 76.8066 139.795 83.0322 138.135 88.9893C136.475 94.9463 134.131 100.562 131.104 105.835C128.076 111.108 124.414 115.845 120.117 120.044C115.82 124.243 111.06 127.905 105.835 131.03C100.61 134.155 95.0195 136.523 89.0625 138.135C83.1055 139.746 76.8555 140.576 70.3125 140.625C63.8184 140.625 57.5928 139.795 51.6357 138.135C45.6787 136.475 40.0635 134.131 34.79 131.104C29.5166 128.076 24.7803 124.414 20.5811 120.117C16.3818 115.82 12.7197 111.06 9.59473 105.835C6.46973 100.61 4.10156 95.0195 2.49023 89.0625C0.878906 83.1055 0.0488281 76.8555 0 70.3125C0 63.8184 0.830078 57.5928 2.49023 51.6357C4.15039 45.6787 6.49414 40.0635 9.52148 34.79C12.5488 29.5166 16.2109 24.7803 20.5078 20.5811C24.8047 16.3818 29.5654 12.7197 34.79 9.59473C40.0146 6.46973 45.6055 4.10156 51.5625 2.49023C57.5195 0.878906 63.7695 0.0488281 70.3125 0ZM70.3125 131.25C75.8789 131.25 81.25 130.518 86.4258 129.053C91.6016 127.588 96.46 125.537 101.001 122.9C105.542 120.264 109.668 117.09 113.379 113.379C117.09 109.668 120.264 105.566 122.9 101.074C125.537 96.582 127.588 91.7236 129.053 86.499C130.518 81.2744 131.25 75.8789 131.25 70.3125C131.25 64.7461 130.518 59.375 129.053 54.1992C127.588 49.0234 125.537 44.165 122.9 39.624C120.264 35.083 117.09 30.957 113.379 27.2461C109.668 23.5352 105.566 20.3613 101.074 17.7246C96.582 15.0879 91.7236 13.0371 86.499 11.5723C81.2744 10.1074 75.8789 9.375 70.3125 9.375C64.6973 9.375 59.3018 10.1074 54.126 11.5723C48.9502 13.0371 44.1162 15.0879 39.624 17.7246C35.1318 20.3613 31.0059 23.5352 27.2461 27.2461C23.4863 30.957 20.3125 35.0586 17.7246 39.5508C15.1367 44.043 13.0859 48.9014 11.5723 54.126C10.0586 59.3506 9.32617 64.7461 9.375 70.3125C9.375 75.8789 10.1074 81.25 11.5723 86.4258C13.0371 91.6016 15.0879 96.46 17.7246 101.001C20.3613 105.542 23.5352 109.668 27.2461 113.379C30.957 117.09 35.0586 120.264 39.5508 122.9C44.043 125.537 48.9014 127.588 54.126 129.053C59.3506 130.518 64.7461 131.25 70.3125 131.25ZM65.625 37.5H75V84.375H65.625V37.5ZM65.625 93.75H75V103.125H65.625V93.75Z" fill="black"/>
</svg>
