<svg width="54" height="54" viewBox="0 0 54 54" fill="none" xmlns="http://www.w3.org/2000/svg">
<circle cx="27" cy="27" r="24.5" stroke="#7957D5" stroke-width="5"/>
<path d="M19.7148 32.5781C20.152 33.0011 20.6251 33.383 21.1337 33.7237C20.0426 34.2041 19.0372 34.7936 18.119 35.4928C16.9425 36.3887 15.9371 37.437 15.1048 38.6369C14.274 39.8345 13.6324 41.1397 13.1801 42.5505C12.7261 43.9667 12.5 45.4506 12.5 47V47.5H13H15H15.5047L15.5 46.9953C15.49 45.9373 15.6247 44.9114 15.9034 43.9161C16.1844 42.9122 16.5698 41.9876 17.0582 41.1403C17.5465 40.2932 18.1395 39.5208 18.8379 38.8223C19.5364 38.1238 20.3088 37.5309 21.156 37.0426C22.0026 36.5545 22.921 36.1748 23.9128 35.9043C24.8985 35.6354 25.926 35.5003 26.997 35.5C28.6686 35.5205 30.193 35.8174 31.5759 36.3845C32.9639 36.9537 34.1735 37.7556 35.2089 38.7911C36.2444 39.8265 37.052 41.0418 37.6318 42.4414C38.2088 43.8342 38.5 45.3519 38.5 47V47.5H39H41H41.5V47C41.5 45.4518 41.2795 43.969 40.8365 42.5538C40.3947 41.142 39.7583 39.8312 38.9276 38.623C38.0957 37.4128 37.0907 36.3541 35.9146 35.4477C34.9976 34.7411 33.9936 34.1564 32.904 33.6932C33.408 33.349 33.8747 32.966 34.3037 32.544C34.9689 31.8897 35.5419 31.1639 36.022 30.3675C36.504 29.5678 36.8709 28.7133 37.1225 27.8054C37.3744 26.8964 37.5 25.9608 37.5 25L37.5 24.9963C37.4891 23.5391 37.2169 22.1717 36.6793 20.8992C36.1439 19.6317 35.3937 18.5194 34.4297 17.5663C33.4678 16.6153 32.3529 15.8671 31.0885 15.3221C29.8144 14.7729 28.4498 14.5 27 14.5L26.9963 14.5C25.5391 14.5109 24.1717 14.7831 22.8992 15.3207C21.6317 15.8561 20.5194 16.6063 19.5663 17.5703C18.6153 18.5322 17.8671 19.6471 17.3221 20.9115C16.7729 22.1856 16.5 23.5502 16.5 25C16.5 25.9628 16.6314 26.9049 16.8942 27.8249C17.1555 28.7393 17.521 29.5963 17.9911 30.3944C18.4622 31.1943 19.0372 31.9223 19.7148 32.5781ZM20.0843 27.9118C19.6957 27.0084 19.5 26.0395 19.5 25C19.5 23.9622 19.7003 22.9948 20.0981 22.0923C20.5016 21.1772 21.0407 20.3792 21.7155 19.6948C22.3875 19.013 23.177 18.4762 24.0882 18.0843C24.9916 17.6957 25.9605 17.5 27 17.5C28.0378 17.5 29.0052 17.7003 29.9077 18.0981C30.8228 18.5016 31.6208 19.0407 32.3052 19.7155C32.987 20.3875 33.5238 21.177 33.9157 22.0882C34.3043 22.9916 34.5 23.9605 34.5 25C34.5 26.0378 34.2997 27.0052 33.9019 27.9077C33.4984 28.8228 32.9593 29.6208 32.2845 30.3052C31.6125 30.987 30.823 31.5238 29.9118 31.9157C29.0084 32.3043 28.0395 32.5 27 32.5C25.9622 32.5 24.9948 32.2997 24.0923 31.9019C23.1772 31.4984 22.3792 30.9593 21.6948 30.2845C21.013 29.6125 20.4762 28.823 20.0843 27.9118Z" fill="#7957D5" stroke="#7957D5"/>
</svg>
