<svg width="174" height="174" viewBox="0 0 174 174" fill="none" xmlns="http://www.w3.org/2000/svg">
<path d="M174 21.75V152.25H0V21.75H46.6436L57.5186 10.875H116.481L127.356 21.75H174ZM163.125 32.625H122.769L111.894 21.75H62.1064L51.2314 32.625H10.875V141.375H163.125V32.625ZM87 43.5C93.0039 43.5 98.6396 44.6328 103.907 46.8984C109.175 49.1641 113.791 52.251 117.756 56.1592C121.721 60.0674 124.836 64.6836 127.102 70.0078C129.367 75.332 130.5 80.9961 130.5 87C130.5 93.0039 129.367 98.6396 127.102 103.907C124.836 109.175 121.749 113.791 117.841 117.756C113.933 121.721 109.316 124.836 103.992 127.102C98.668 129.367 93.0039 130.5 87 130.5C80.9961 130.5 75.3604 129.367 70.0928 127.102C64.8252 124.836 60.209 121.749 56.2441 117.841C52.2793 113.933 49.1641 109.316 46.8984 103.992C44.6328 98.668 43.5 93.0039 43.5 87C43.5 80.9961 44.6328 75.3604 46.8984 70.0928C49.1641 64.8252 52.251 60.209 56.1592 56.2441C60.0674 52.2793 64.6836 49.1641 70.0078 46.8984C75.332 44.6328 80.9961 43.5 87 43.5ZM87 119.625C91.4746 119.625 95.6943 118.775 99.6592 117.076C103.624 115.377 107.079 113.026 110.024 110.024C112.97 107.022 115.292 103.567 116.991 99.6592C118.69 95.751 119.568 91.5312 119.625 87C119.625 82.5254 118.775 78.3057 117.076 74.3408C115.377 70.376 113.026 66.9209 110.024 63.9756C107.022 61.0303 103.567 58.708 99.6592 57.0088C95.751 55.3096 91.5312 54.4316 87 54.375C82.5254 54.375 78.3057 55.2246 74.3408 56.9238C70.376 58.623 66.9209 60.9736 63.9756 63.9756C61.0303 66.9775 58.708 70.4326 57.0088 74.3408C55.3096 78.249 54.4316 82.4688 54.375 87C54.375 91.4746 55.2246 95.6943 56.9238 99.6592C58.623 103.624 60.9736 107.079 63.9756 110.024C66.9775 112.97 70.4326 115.292 74.3408 116.991C78.249 118.69 82.4688 119.568 87 119.625ZM27.1875 43.5C28.6602 43.5 29.9346 44.0381 31.0107 45.1143C32.0869 46.1904 32.625 47.4648 32.625 48.9375C32.625 50.4102 32.0869 51.6846 31.0107 52.7607C29.9346 53.8369 28.6602 54.375 27.1875 54.375C25.7148 54.375 24.4404 53.8369 23.3643 52.7607C22.2881 51.6846 21.75 50.4102 21.75 48.9375C21.75 47.4648 22.2881 46.1904 23.3643 45.1143C24.4404 44.0381 25.7148 43.5 27.1875 43.5Z" fill="black"/>
</svg>
