<svg width="60" height="52" viewBox="0 0 60 52" fill="none" xmlns="http://www.w3.org/2000/svg">
<path d="M30 23.25C31.0156 23.25 31.9824 23.4551 32.9004 23.8652C33.8184 24.2559 34.6094 24.793 35.2734 25.4766C35.957 26.1406 36.4941 26.9316 36.8848 27.8496C37.2949 28.7676 37.5 29.7344 37.5 30.75C37.5 31.7852 37.2949 32.7617 36.8848 33.6797C36.4941 34.5781 35.957 35.3691 35.2734 36.0527C34.6094 36.7168 33.8184 37.2539 32.9004 37.6641C31.9824 38.0547 31.0156 38.25 30 38.25C28.9648 38.25 27.9883 38.0547 27.0703 37.6641C26.1719 37.2539 25.3809 36.7168 24.6973 36.0527C24.0332 35.3691 23.4961 34.5781 23.0859 33.6797C22.6953 32.7617 22.5 31.7852 22.5 30.75C22.5 29.7344 22.6953 28.7676 23.0859 27.8496C23.4961 26.9316 24.0332 26.1406 24.6973 25.4766C25.3809 24.793 26.1719 24.2559 27.0703 23.8652C27.9883 23.4551 28.9648 23.25 30 23.25ZM30 34.5C30.5273 34.5 31.0156 34.4023 31.4648 34.207C31.9141 34.0117 32.3047 33.748 32.6367 33.416C32.9883 33.0645 33.2617 32.6641 33.457 32.2148C33.6523 31.7656 33.75 31.2773 33.75 30.75C33.75 30.2227 33.6523 29.7344 33.457 29.2852C33.2617 28.8359 32.9883 28.4453 32.6367 28.1133C32.3047 27.7617 31.9141 27.4883 31.4648 27.293C31.0156 27.0977 30.5273 27 30 27C29.4727 27 28.9844 27.0977 28.5352 27.293C28.0859 27.4883 27.6855 27.7617 27.334 28.1133C27.002 28.4453 26.7383 28.8359 26.543 29.2852C26.3477 29.7344 26.25 30.2227 26.25 30.75C26.25 31.2773 26.3477 31.7656 26.543 32.2148C26.7383 32.6641 27.002 33.0645 27.334 33.416C27.6855 33.748 28.0859 34.0117 28.5352 34.207C28.9844 34.4023 29.4727 34.5 30 34.5ZM30 0.75C32.7539 0.75 35.4004 1.11133 37.9395 1.83398C40.498 2.53711 42.8906 3.54297 45.1172 4.85156C47.3438 6.16016 49.3652 7.73242 51.1816 9.56836C53.0176 11.3848 54.5898 13.4062 55.8984 15.6328C57.207 17.8594 58.2129 20.252 58.916 22.8105C59.6387 25.3496 60 27.9961 60 30.75C60 32.7422 59.8047 34.7051 59.4141 36.6387C59.0234 38.5527 58.457 40.418 57.7148 42.2344C56.9727 44.0312 56.0547 45.75 54.9609 47.3906C53.8672 49.0312 52.6172 50.5547 51.2109 51.9609L48.5742 49.3242C49.8047 48.0938 50.8887 46.7656 51.8262 45.3398C52.7832 43.8945 53.584 42.3809 54.2285 40.7988C54.8926 39.2168 55.3906 37.5859 55.7227 35.9062C56.0742 34.207 56.25 32.4883 56.25 30.75C56.25 28.3281 55.9375 26.0039 55.3125 23.7773C54.6875 21.5312 53.7988 19.4414 52.6465 17.5078C51.5137 15.5547 50.1465 13.7871 48.5449 12.2051C46.9629 10.6035 45.1953 9.23633 43.2422 8.10352C41.3086 6.95117 39.2188 6.0625 36.9727 5.4375C34.7461 4.8125 32.4219 4.5 30 4.5C27.5781 4.5 25.2441 4.8125 22.998 5.4375C20.7715 6.0625 18.6816 6.95117 16.7285 8.10352C14.7949 9.23633 13.0273 10.6035 11.4258 12.2051C9.84375 13.7871 8.47656 15.5547 7.32422 17.5078C6.19141 19.4414 5.3125 21.5312 4.6875 23.7773C4.0625 26.0039 3.75 28.3281 3.75 30.75C3.75 32.4883 3.91602 34.207 4.24805 35.9062C4.59961 37.5859 5.09766 39.2168 5.74219 40.7988C6.40625 42.3809 7.20703 43.8945 8.14453 45.3398C9.10156 46.7656 10.1953 48.0938 11.4258 49.3242L8.78906 51.9609C7.38281 50.5547 6.13281 49.0312 5.03906 47.3906C3.94531 45.75 3.02734 44.0312 2.28516 42.2344C1.54297 40.418 0.976562 38.5527 0.585938 36.6387C0.195313 34.7051 0 32.7422 0 30.75C0 27.9961 0.351562 25.3496 1.05469 22.8105C1.77734 20.252 2.79297 17.8594 4.10156 15.6328C5.41016 13.4062 6.97266 11.3848 8.78906 9.56836C10.625 7.73242 12.6562 6.16016 14.8828 4.85156C17.1094 3.54297 19.4922 2.53711 22.0312 1.83398C24.5898 1.11133 27.2461 0.75 30 0.75ZM30 12C32.5977 12 35.0293 12.4883 37.2949 13.4648C39.5801 14.4414 41.5723 15.7793 43.2715 17.4785C44.9707 19.1777 46.3086 21.1699 47.2852 23.4551C48.2617 25.7207 48.75 28.1523 48.75 30.75C48.75 33.25 48.2715 35.6426 47.3145 37.9277C46.377 40.2129 45.0293 42.2441 43.2715 44.0215L40.6055 41.3555C42.0117 39.9492 43.0957 38.3281 43.8574 36.4922C44.6191 34.6562 45 32.7422 45 30.75C45 28.6797 44.5996 26.7363 43.7988 24.9199C43.0176 23.1035 41.9434 21.5215 40.5762 20.1738C39.2285 18.8066 37.6465 17.7324 35.8301 16.9512C34.0137 16.1504 32.0703 15.75 30 15.75C27.9297 15.75 25.9863 16.1504 24.1699 16.9512C22.3535 17.7324 20.7617 18.8066 19.3945 20.1738C18.0469 21.5215 16.9727 23.1035 16.1719 24.9199C15.3906 26.7363 15 28.6797 15 30.75C15 32.7422 15.3809 34.6562 16.1426 36.4922C16.9043 38.3281 17.9883 39.9492 19.3945 41.3555L16.7285 44.0215C14.9707 42.2441 13.6133 40.2129 12.6562 37.9277C11.7188 35.6426 11.25 33.25 11.25 30.75C11.25 28.1523 11.7383 25.7207 12.7148 23.4551C13.6914 21.1699 15.0293 19.1777 16.7285 17.4785C18.4277 15.7793 20.4102 14.4414 22.6758 13.4648C24.9609 12.4883 27.4023 12 30 12Z" fill="#7957D5"/>
</svg>
