<svg width="22" height="22" viewBox="0 0 22 22" fill="none" xmlns="http://www.w3.org/2000/svg">
<path d="M18.5 15.5C18.9141 15.5 19.3008 15.5781 19.6602 15.7344C20.0273 15.8906 20.3477 16.1055 20.6211 16.3789C20.8945 16.6523 21.1094 16.9727 21.2656 17.3398C21.4219 17.6992 21.5 18.0859 21.5 18.5C21.5 18.9141 21.4219 19.3047 21.2656 19.6719C21.1094 20.0312 20.8945 20.3477 20.6211 20.6211C20.3477 20.8945 20.0273 21.1094 19.6602 21.2656C19.3008 21.4219 18.9141 21.5 18.5 21.5C18.0859 21.5 17.6953 21.4219 17.3281 21.2656C16.9688 21.1094 16.6523 20.8945 16.3789 20.6211C16.1055 20.3477 15.8906 20.0312 15.7344 19.6719C15.5781 19.3047 15.5 18.9141 15.5 18.5C15.5 17.9453 15.6367 17.4375 15.9102 16.9766L12.5234 13.5898C12.0625 13.8633 11.5547 14 11 14C10.4453 14 9.9375 13.8633 9.47656 13.5898L6.08984 16.9766C6.36328 17.4375 6.5 17.9453 6.5 18.5C6.5 18.9141 6.42188 19.3047 6.26562 19.6719C6.10938 20.0312 5.89453 20.3477 5.62109 20.6211C5.34766 20.8945 5.02734 21.1094 4.66016 21.2656C4.30078 21.4219 3.91406 21.5 3.5 21.5C3.08594 21.5 2.69531 21.4219 2.32812 21.2656C1.96875 21.1094 1.65234 20.8945 1.37891 20.6211C1.10547 20.3477 0.890625 20.0312 0.734375 19.6719C0.578125 19.3047 0.5 18.9141 0.5 18.5C0.5 18.0859 0.578125 17.6992 0.734375 17.3398C0.890625 16.9727 1.10547 16.6523 1.37891 16.3789C1.65234 16.1055 1.96875 15.8906 2.32812 15.7344C2.69531 15.5781 3.08594 15.5 3.5 15.5C4.05469 15.5 4.5625 15.6367 5.02344 15.9102L8.41016 12.5234C8.13672 12.0625 8 11.5547 8 11C8 10.4453 8.13672 9.9375 8.41016 9.47656L5.02344 6.08984C4.5625 6.36328 4.05469 6.5 3.5 6.5C3.08594 6.5 2.69531 6.42187 2.32812 6.26562C1.96875 6.10938 1.65234 5.89453 1.37891 5.62109C1.10547 5.34766 0.890625 5.03125 0.734375 4.67188C0.578125 4.30469 0.5 3.91406 0.5 3.5C0.5 3.08594 0.578125 2.69922 0.734375 2.33984C0.890625 1.97266 1.10547 1.65234 1.37891 1.37891C1.65234 1.10547 1.96875 0.890625 2.32812 0.734375C2.69531 0.578125 3.08594 0.5 3.5 0.5C3.91406 0.5 4.30078 0.578125 4.66016 0.734375C5.02734 0.890625 5.34766 1.10547 5.62109 1.37891C5.89453 1.65234 6.10938 1.97266 6.26562 2.33984C6.42188 2.69922 6.5 3.08594 6.5 3.5C6.5 4.05469 6.36328 4.5625 6.08984 5.02344L9.47656 8.41016C9.9375 8.13672 10.4453 8 11 8C11.5547 8 12.0625 8.13672 12.5234 8.41016L15.9102 5.02344C15.6367 4.5625 15.5 4.05469 15.5 3.5C15.5 3.08594 15.5781 2.69922 15.7344 2.33984C15.8906 1.97266 16.1055 1.65234 16.3789 1.37891C16.6523 1.10547 16.9688 0.890625 17.3281 0.734375C17.6953 0.578125 18.0859 0.5 18.5 0.5C18.9141 0.5 19.3008 0.578125 19.6602 0.734375C20.0273 0.890625 20.3477 1.10547 20.6211 1.37891C20.8945 1.65234 21.1094 1.97266 21.2656 2.33984C21.4219 2.69922 21.5 3.08594 21.5 3.5C21.5 3.91406 21.4219 4.30469 21.2656 4.67188C21.1094 5.03125 20.8945 5.34766 20.6211 5.62109C20.3477 5.89453 20.0273 6.10938 19.6602 6.26562C19.3008 6.42187 18.9141 6.5 18.5 6.5C17.9453 6.5 17.4375 6.36328 16.9766 6.08984L13.5898 9.47656C13.8633 9.9375 14 10.4453 14 11C14 11.5547 13.8633 12.0625 13.5898 12.5234L16.9766 15.9102C17.4375 15.6367 17.9453 15.5 18.5 15.5ZM18.5 2C18.2891 2 18.0938 2.03906 17.9141 2.11719C17.7344 2.19531 17.5742 2.30469 17.4336 2.44531C17.3008 2.57812 17.1953 2.73438 17.1172 2.91406C17.0391 3.09375 17 3.28906 17 3.5C17 3.71094 17.0391 3.90625 17.1172 4.08594C17.1953 4.26562 17.3008 4.42578 17.4336 4.56641C17.5742 4.69922 17.7344 4.80469 17.9141 4.88281C18.0938 4.96094 18.2891 5 18.5 5C18.7109 5 18.9062 4.96094 19.0859 4.88281C19.2656 4.80469 19.4219 4.69922 19.5547 4.56641C19.6953 4.42578 19.8047 4.26562 19.8828 4.08594C19.9609 3.90625 20 3.71094 20 3.5C20 3.28906 19.9609 3.09375 19.8828 2.91406C19.8047 2.73438 19.6953 2.57812 19.5547 2.44531C19.4219 2.30469 19.2656 2.19531 19.0859 2.11719C18.9062 2.03906 18.7109 2 18.5 2ZM2 3.5C2 3.71094 2.03906 3.90625 2.11719 4.08594C2.19531 4.26562 2.30078 4.42578 2.43359 4.56641C2.57422 4.69922 2.73438 4.80469 2.91406 4.88281C3.09375 4.96094 3.28906 5 3.5 5C3.71094 5 3.90625 4.96094 4.08594 4.88281C4.26562 4.80469 4.42188 4.69922 4.55469 4.56641C4.69531 4.42578 4.80469 4.26562 4.88281 4.08594C4.96094 3.90625 5 3.71094 5 3.5C5 3.28906 4.96094 3.09375 4.88281 2.91406C4.80469 2.73438 4.69531 2.57812 4.55469 2.44531C4.42188 2.30469 4.26562 2.19531 4.08594 2.11719C3.90625 2.03906 3.71094 2 3.5 2C3.28906 2 3.09375 2.03906 2.91406 2.11719C2.73438 2.19531 2.57422 2.30469 2.43359 2.44531C2.30078 2.57812 2.19531 2.73438 2.11719 2.91406C2.03906 3.09375 2 3.28906 2 3.5ZM3.5 20C3.71094 20 3.90625 19.9609 4.08594 19.8828C4.26562 19.8047 4.42188 19.6992 4.55469 19.5664C4.69531 19.4258 4.80469 19.2656 4.88281 19.0859C4.96094 18.9062 5 18.7109 5 18.5C5 18.2891 4.96094 18.0938 4.88281 17.9141C4.80469 17.7344 4.69531 17.5781 4.55469 17.4453C4.42188 17.3047 4.26562 17.1953 4.08594 17.1172C3.90625 17.0391 3.71094 17 3.5 17C3.28906 17 3.09375 17.0391 2.91406 17.1172C2.73438 17.1953 2.57422 17.3047 2.43359 17.4453C2.30078 17.5781 2.19531 17.7344 2.11719 17.9141C2.03906 18.0938 2 18.2891 2 18.5C2 18.7109 2.03906 18.9062 2.11719 19.0859C2.19531 19.2656 2.30078 19.4258 2.43359 19.5664C2.57422 19.6992 2.73438 19.8047 2.91406 19.8828C3.09375 19.9609 3.28906 20 3.5 20ZM11 12.5C11.2109 12.5 11.4062 12.4609 11.5859 12.3828C11.7656 12.3047 11.9219 12.1992 12.0547 12.0664C12.1953 11.9258 12.3047 11.7656 12.3828 11.5859C12.4609 11.4062 12.5 11.2109 12.5 11C12.5 10.7891 12.4609 10.5938 12.3828 10.4141C12.3047 10.2344 12.1953 10.0781 12.0547 9.94531C11.9219 9.80469 11.7656 9.69531 11.5859 9.61719C11.4062 9.53906 11.2109 9.5 11 9.5C10.7891 9.5 10.5938 9.53906 10.4141 9.61719C10.2344 9.69531 10.0742 9.80469 9.93359 9.94531C9.80078 10.0781 9.69531 10.2344 9.61719 10.4141C9.53906 10.5938 9.5 10.7891 9.5 11C9.5 11.2109 9.53906 11.4062 9.61719 11.5859C9.69531 11.7656 9.80078 11.9258 9.93359 12.0664C10.0742 12.1992 10.2344 12.3047 10.4141 12.3828C10.5938 12.4609 10.7891 12.5 11 12.5ZM18.5 20C18.7109 20 18.9062 19.9609 19.0859 19.8828C19.2656 19.8047 19.4219 19.6992 19.5547 19.5664C19.6953 19.4258 19.8047 19.2656 19.8828 19.0859C19.9609 18.9062 20 18.7109 20 18.5C20 18.2891 19.9609 18.0938 19.8828 17.9141C19.8047 17.7344 19.6953 17.5781 19.5547 17.4453C19.4219 17.3047 19.2656 17.1953 19.0859 17.1172C18.9062 17.0391 18.7109 17 18.5 17C18.2891 17 18.0938 17.0391 17.9141 17.1172C17.7344 17.1953 17.5742 17.3047 17.4336 17.4453C17.3008 17.5781 17.1953 17.7344 17.1172 17.9141C17.0391 18.0938 17 18.2891 17 18.5C17 18.7109 17.0391 18.9062 17.1172 19.0859C17.1953 19.2656 17.3008 19.4258 17.4336 19.5664C17.5742 19.6992 17.7344 19.8047 17.9141 19.8828C18.0938 19.9609 18.2891 20 18.5 20Z" fill="black"/>
</svg>
