<svg width="24" height="16" viewBox="0 0 24 16" fill="none" xmlns="http://www.w3.org/2000/svg">
<path d="M22.0195 2.48047C22.6602 3.12109 23.1484 3.85156 23.4844 4.67188C23.8281 5.48438 24 6.34375 24 7.25C24 7.52344 23.9922 7.85156 23.9766 8.23438C23.9609 8.61719 23.9258 9.03125 23.8711 9.47656C23.8242 9.92188 23.75 10.3828 23.6484 10.8594C23.5547 11.3281 23.4297 11.7891 23.2734 12.2422C23.0391 12.9141 22.7656 13.4648 22.4531 13.8945C22.1406 14.3164 21.8164 14.6484 21.4805 14.8906C21.1445 15.125 20.8047 15.2852 20.4609 15.3711C20.1172 15.457 19.7969 15.5 19.5 15.5C19.2422 15.5 19.0039 15.457 18.7852 15.3711C18.5742 15.2773 18.3711 15.1602 18.1758 15.0195C17.9883 14.8789 17.8086 14.7188 17.6367 14.5391C17.4727 14.3516 17.3086 14.1641 17.1445 13.9766C16.9805 13.7891 16.8164 13.6094 16.6523 13.4375C16.4961 13.2656 16.332 13.1133 16.1602 12.9805C15.9883 12.8398 15.8047 12.7266 15.6094 12.6406C15.4219 12.5547 15.2148 12.5078 14.9883 12.5H9.01172C8.78516 12.5078 8.57422 12.5547 8.37891 12.6406C8.19141 12.7266 8.01172 12.8398 7.83984 12.9805C7.66797 13.1133 7.5 13.2656 7.33594 13.4375C7.17969 13.6094 7.01953 13.7891 6.85547 13.9766C6.69141 14.1641 6.52344 14.3516 6.35156 14.5391C6.1875 14.7188 6.00781 14.8789 5.8125 15.0195C5.625 15.1602 5.42188 15.2773 5.20312 15.3711C4.99219 15.457 4.75781 15.5 4.5 15.5C4.20312 15.5 3.88281 15.457 3.53906 15.3711C3.19531 15.2852 2.85547 15.125 2.51953 14.8906C2.18359 14.6484 1.85938 14.3164 1.54688 13.8945C1.23438 13.4648 0.960938 12.9141 0.726562 12.2422C0.570312 11.7891 0.441406 11.3281 0.339844 10.8594C0.246094 10.3828 0.171875 9.92188 0.117188 9.47656C0.0703125 9.03125 0.0390625 8.61719 0.0234375 8.23438C0.0078125 7.85156 0 7.52344 0 7.25C0 6.34375 0.167969 5.48438 0.503906 4.67188C0.847656 3.85156 1.33984 3.12109 1.98047 2.48047C2.61328 1.83984 3.33984 1.35156 4.16016 1.01562C4.98047 0.671875 5.84375 0.5 6.75 0.5H17.25C18.1562 0.5 19.0156 0.671875 19.8281 1.01562C20.6484 1.35156 21.3789 1.83984 22.0195 2.48047ZM21.8555 11.75C22.0039 11.3359 22.1211 10.9062 22.207 10.4609C22.293 10.0156 22.3555 9.58984 22.3945 9.18359C22.4414 8.76953 22.4688 8.39453 22.4766 8.05859C22.4922 7.72266 22.5 7.45312 22.5 7.25C22.5 6.52344 22.3594 5.84375 22.0781 5.21094C21.8047 4.57031 21.4297 4.01562 20.9531 3.54688C20.4844 3.07031 19.9297 2.69531 19.2891 2.42188C18.6562 2.14062 17.9766 2 17.25 2H6.75C6.02344 2 5.33984 2.14062 4.69922 2.42188C4.06641 2.69531 3.51172 3.07031 3.03516 3.54688C2.56641 4.01562 2.19141 4.57031 1.91016 5.21094C1.63672 5.84375 1.5 6.52344 1.5 7.25C1.5 7.45312 1.50391 7.72266 1.51172 8.05859C1.52734 8.39453 1.55469 8.76953 1.59375 9.18359C1.64062 9.58984 1.70703 10.0156 1.79297 10.4609C1.87891 10.9062 1.99609 11.3359 2.14453 11.75C2.33984 12.3125 2.55469 12.7461 2.78906 13.0508C3.02344 13.3555 3.25 13.5781 3.46875 13.7188C3.69531 13.8594 3.89844 13.9414 4.07812 13.9648C4.26562 13.9883 4.40625 14 4.5 14C4.67188 14 4.85938 13.8984 5.0625 13.6953C5.27344 13.4844 5.49219 13.25 5.71875 12.9922C5.90625 12.7734 6.10547 12.5508 6.31641 12.3242C6.53516 12.0898 6.77344 11.8789 7.03125 11.6914C7.29688 11.4961 7.58984 11.3359 7.91016 11.2109C8.23047 11.0859 8.58594 11.0156 8.97656 11H8.98828H15.0234C15.4141 11.0156 15.7695 11.0859 16.0898 11.2109C16.4102 11.3359 16.6992 11.4961 16.957 11.6914C17.2227 11.8789 17.4609 12.0898 17.6719 12.3242C17.8906 12.5508 18.0938 12.7734 18.2812 12.9922C18.5078 13.25 18.7227 13.4844 18.9258 13.6953C19.1367 13.8984 19.3281 14 19.5 14C19.5938 14 19.7305 13.9883 19.9102 13.9648C20.0977 13.9414 20.3008 13.8594 20.5195 13.7188C20.7461 13.5781 20.9766 13.3555 21.2109 13.0508C21.4453 12.7461 21.6602 12.3125 21.8555 11.75ZM6 6.5H7.5V8H6V9.5H4.5V8H3V6.5H4.5V5H6V6.5ZM19.5 8C19.7109 8 19.9062 8.03906 20.0859 8.11719C20.2656 8.19531 20.4219 8.30469 20.5547 8.44531C20.6953 8.57812 20.8047 8.73438 20.8828 8.91406C20.9609 9.09375 21 9.28906 21 9.5C21 9.71094 20.9609 9.90625 20.8828 10.0859C20.8047 10.2656 20.6953 10.4258 20.5547 10.5664C20.4219 10.6992 20.2656 10.8047 20.0859 10.8828C19.9062 10.9609 19.7109 11 19.5 11C19.2891 11 19.0938 10.9609 18.9141 10.8828C18.7344 10.8047 18.5742 10.6992 18.4336 10.5664C18.3008 10.4258 18.1953 10.2656 18.1172 10.0859C18.0391 9.90625 18 9.71094 18 9.5C18 9.28906 18.0391 9.09375 18.1172 8.91406C18.1953 8.73438 18.3008 8.57812 18.4336 8.44531C18.5742 8.30469 18.7344 8.19531 18.9141 8.11719C19.0938 8.03906 19.2891 8 19.5 8ZM16.5 5C16.7109 5 16.9062 5.03906 17.0859 5.11719C17.2656 5.19531 17.4219 5.30469 17.5547 5.44531C17.6953 5.57812 17.8047 5.73438 17.8828 5.91406C17.9609 6.09375 18 6.28906 18 6.5C18 6.71094 17.9609 6.90625 17.8828 7.08594C17.8047 7.26562 17.6953 7.42578 17.5547 7.56641C17.4219 7.69922 17.2656 7.80469 17.0859 7.88281C16.9062 7.96094 16.7109 8 16.5 8C16.2891 8 16.0938 7.96094 15.9141 7.88281C15.7344 7.80469 15.5742 7.69922 15.4336 7.56641C15.3008 7.42578 15.1953 7.26562 15.1172 7.08594C15.0391 6.90625 15 6.71094 15 6.5C15 6.28906 15.0391 6.09375 15.1172 5.91406C15.1953 5.73438 15.3008 5.57812 15.4336 5.44531C15.5742 5.30469 15.7344 5.19531 15.9141 5.11719C16.0938 5.03906 16.2891 5 16.5 5Z" fill="black"/>
</svg>
