<svg width="111" height="111" viewBox="0 0 111 111" fill="none" xmlns="http://www.w3.org/2000/svg">
<path d="M55.3125 110.625C50.2038 110.625 45.3063 109.972 40.6201 108.666C35.9339 107.36 31.5166 105.516 27.3682 103.135C23.2197 100.753 19.4938 97.8724 16.1904 94.4922C12.887 91.112 10.0062 87.3669 7.54785 83.2568C5.08952 79.1468 3.22656 74.7487 1.95898 70.0625C0.691406 65.3763 0.0384115 60.4596 0 55.3125C0 50.2038 0.652995 45.3063 1.95898 40.6201C3.26497 35.9339 5.10872 31.5166 7.49023 27.3682C9.87174 23.2197 12.7526 19.4938 16.1328 16.1904C19.513 12.887 23.2581 10.0062 27.3682 7.54785C31.4782 5.08952 35.8763 3.22656 40.5625 1.95898C45.2487 0.691406 50.1654 0.0384115 55.3125 0C60.4212 0 65.3187 0.652995 70.0049 1.95898C74.6911 3.26497 79.1084 5.10872 83.2568 7.49023C87.4053 9.87174 91.1312 12.7526 94.4346 16.1328C97.738 19.513 100.619 23.2581 103.077 27.3682C105.535 31.4782 107.398 35.8763 108.666 40.5625C109.934 45.2487 110.587 50.1654 110.625 55.3125C110.625 60.4212 109.972 65.3187 108.666 70.0049C107.36 74.6911 105.516 79.1084 103.135 83.2568C100.753 87.4053 97.8724 91.1312 94.4922 94.4346C91.112 97.738 87.3669 100.619 83.2568 103.077C79.1468 105.535 74.7487 107.398 70.0625 108.666C65.3763 109.934 60.4596 110.587 55.3125 110.625ZM55.3125 7.375C50.8952 7.375 46.6507 7.95117 42.5791 9.10352C38.5075 10.2559 34.7048 11.8691 31.1709 13.9434C27.637 16.0176 24.3913 18.5143 21.4336 21.4336C18.4759 24.3529 15.9792 27.5794 13.9434 31.1133C11.9076 34.6471 10.2943 38.4691 9.10352 42.5791C7.91276 46.6891 7.33659 50.9336 7.375 55.3125C7.375 59.6914 7.95117 63.9167 9.10352 67.9883C10.2559 72.0599 11.8691 75.8818 13.9434 79.4541C16.0176 83.0264 18.5143 86.2721 21.4336 89.1914C24.3529 92.1107 27.5794 94.6074 31.1133 96.6816C34.6471 98.7559 38.4691 100.369 42.5791 101.521C46.6891 102.674 50.9336 103.25 55.3125 103.25C59.6914 103.25 63.9167 102.674 67.9883 101.521C72.0599 100.369 75.8818 98.7559 79.4541 96.6816C83.0264 94.6074 86.2721 92.1107 89.1914 89.1914C92.1107 86.2721 94.6074 83.0456 96.6816 79.5117C98.7559 75.9779 100.369 72.1559 101.521 68.0459C102.674 63.9359 103.25 59.6914 103.25 55.3125C103.25 50.9336 102.674 46.7083 101.521 42.6367C100.369 38.5651 98.7559 34.7432 96.6816 31.1709C94.6074 27.5986 92.1107 24.3529 89.1914 21.4336C86.2721 18.5143 83.0456 16.0176 79.5117 13.9434C75.9779 11.8691 72.1559 10.2559 68.0459 9.10352C63.9359 7.95117 59.6914 7.375 55.3125 7.375ZM51.625 44.25H59V81.125H51.625V44.25ZM51.625 29.5H59V36.875H51.625V29.5Z" fill="black"/>
</svg>
