<svg width="206" height="117" viewBox="0 0 206 117" fill="none" xmlns="http://www.w3.org/2000/svg">
<g clip-path="url(#clip0)">
<path d="M130.854 36.4583L163.553 102.083H47L90.75 14.5833L116.214 65.6819L130.854 36.4583ZM130.854 52.8076L120.315 73.8281L122.993 79.2399L129.316 72.9166H140.88L130.854 52.8076ZM98.1556 45.7438L90.75 30.9326L83.3444 45.7438L90.75 53.1494L98.1556 45.7438ZM58.792 94.7916H122.651L101.574 52.6367L90.75 63.5172L79.8695 52.6367L58.792 94.7916ZM130.74 94.7916H151.761L144.526 80.2083H132.392L126.468 86.1328L130.74 94.7916Z" fill="black"/>
</g>
<rect x="4" y="4.66669" width="198" height="94" stroke="black" stroke-width="8"/>
<defs>
<clipPath id="clip0">
<rect width="116.667" height="116.667" fill="white" transform="translate(47)"/>
</clipPath>
</defs>
</svg>
