<svg width="23" height="17" viewBox="0 0 23 17" fill="none" xmlns="http://www.w3.org/2000/svg">
<path d="M12 13.5V15H15V16.5H7.5V15H10.5V13.5H0V0H22.5V13.5H12ZM1.5 12H21V1.5H1.5V12ZM15 4.5C15.4141 4.5 15.8008 4.57813 16.1602 4.73438C16.5273 4.89062 16.8477 5.10547 17.1211 5.37891C17.3945 5.65234 17.6094 5.97266 17.7656 6.33984C17.9219 6.69922 18 7.08594 18 7.5C18 7.91406 17.9219 8.30469 17.7656 8.67188C17.6094 9.03125 17.3945 9.34766 17.1211 9.62109C16.8477 9.89453 16.5273 10.1094 16.1602 10.2656C15.8008 10.4219 15.4141 10.5 15 10.5H7.5C7.08594 10.5 6.69531 10.4219 6.32812 10.2656C5.96875 10.1094 5.65234 9.89453 5.37891 9.62109C5.10547 9.34766 4.89062 9.03125 4.73438 8.67188C4.57812 8.30469 4.5 7.91406 4.5 7.5C4.5 7.08594 4.57812 6.69922 4.73438 6.33984C4.89062 5.97266 5.10547 5.65234 5.37891 5.37891C5.65234 5.10547 5.96875 4.89062 6.32812 4.73438C6.69531 4.57813 7.08594 4.5 7.5 4.5C7.91406 4.5 8.30078 4.57813 8.66016 4.73438C9.02734 4.89062 9.34766 5.10547 9.62109 5.37891C9.89453 5.65234 10.1094 5.97266 10.2656 6.33984C10.4219 6.69922 10.5 7.08594 10.5 7.5C10.5 8.04688 10.3672 8.54688 10.1016 9H12.3984C12.1328 8.54688 12 8.04688 12 7.5C12 7.08594 12.0781 6.69922 12.2344 6.33984C12.3906 5.97266 12.6055 5.65234 12.8789 5.37891C13.1523 5.10547 13.4688 4.89062 13.8281 4.73438C14.1953 4.57813 14.5859 4.5 15 4.5ZM6 7.5C6 7.71094 6.03906 7.90625 6.11719 8.08594C6.19531 8.26562 6.30078 8.42578 6.43359 8.56641C6.57422 8.69922 6.73438 8.80469 6.91406 8.88281C7.09375 8.96094 7.28906 9 7.5 9C7.71094 9 7.90625 8.96094 8.08594 8.88281C8.26562 8.80469 8.42188 8.69922 8.55469 8.56641C8.69531 8.42578 8.80469 8.26562 8.88281 8.08594C8.96094 7.90625 9 7.71094 9 7.5C9 7.28906 8.96094 7.09375 8.88281 6.91406C8.80469 6.73438 8.69531 6.57812 8.55469 6.44531C8.42188 6.30469 8.26562 6.19531 8.08594 6.11719C7.90625 6.03906 7.71094 6 7.5 6C7.28906 6 7.09375 6.03906 6.91406 6.11719C6.73438 6.19531 6.57422 6.30469 6.43359 6.44531C6.30078 6.57812 6.19531 6.73438 6.11719 6.91406C6.03906 7.09375 6 7.28906 6 7.5ZM15 9C15.2109 9 15.4062 8.96094 15.5859 8.88281C15.7656 8.80469 15.9219 8.69922 16.0547 8.56641C16.1953 8.42578 16.3047 8.26562 16.3828 8.08594C16.4609 7.90625 16.5 7.71094 16.5 7.5C16.5 7.28906 16.4609 7.09375 16.3828 6.91406C16.3047 6.73438 16.1953 6.57812 16.0547 6.44531C15.9219 6.30469 15.7656 6.19531 15.5859 6.11719C15.4062 6.03906 15.2109 6 15 6C14.7891 6 14.5938 6.03906 14.4141 6.11719C14.2344 6.19531 14.0742 6.30469 13.9336 6.44531C13.8008 6.57812 13.6953 6.73438 13.6172 6.91406C13.5391 7.09375 13.5 7.28906 13.5 7.5C13.5 7.71094 13.5391 7.90625 13.6172 8.08594C13.6953 8.26562 13.8008 8.42578 13.9336 8.56641C14.0742 8.69922 14.2344 8.80469 14.4141 8.88281C14.5938 8.96094 14.7891 9 15 9Z" fill="black"/>
</svg>
