<svg width="129" height="129" viewBox="0 0 129 129" fill="none" xmlns="http://www.w3.org/2000/svg">
<path fill-rule="evenodd" clip-rule="evenodd" d="M96.0956 85.7818L125.657 115.343L120 121L13 14L18.6569 8.34315L48.375 38.0613L48.375 16.125C48.375 13.9414 48.7949 11.8628 49.6348 9.88916C50.4746 7.91553 51.6294 6.21484 53.0991 4.78711C54.5688 3.35937 56.2905 2.20459 58.2642 1.32275C60.2378 0.440915 62.3164 -2.72394e-06 64.5 -2.81938e-06C66.7256 -2.91667e-06 68.8042 0.419919 70.7358 1.25976C72.6675 2.09961 74.3682 3.25439 75.8379 4.72412C77.3076 6.19384 78.4624 7.91552 79.3022 9.88916C80.1421 11.8628 80.583 13.9414 80.625 16.125L80.625 44.3437L129 68.5312L129 96.75L96.0956 85.7818ZM56.4375 46.1238L56.4375 16.125C56.3955 15.0332 56.6055 13.9834 57.0674 12.9756C57.5293 11.9678 58.1172 11.1069 58.831 10.3931C59.5449 9.6792 60.3848 9.1123 61.3506 8.69238C62.3164 8.27246 63.3662 8.0625 64.5 8.0625C65.5918 8.0205 66.6416 8.23047 67.6494 8.69238C68.6572 9.15429 69.5181 9.74218 70.2319 10.4561C70.9458 11.1699 71.5127 12.0098 71.9326 12.9756C72.3525 13.9414 72.5625 14.9912 72.5625 16.125L72.5625 49.3198C80.667 53.477 88.7295 57.5293 96.75 61.4766C104.771 65.4238 112.833 69.4341 120.937 73.5073L120.937 85.5381C112.791 82.8506 104.708 80.1841 96.687 77.5386C92.2737 76.0829 87.854 74.6081 83.428 73.1142L56.4375 46.1238ZM72.5625 101.726L72.5625 83.5625L80.625 91.625L80.625 96.75L88.6875 100.781L88.6875 129L64.5 120.937L40.3125 129L40.3125 100.781L48.375 96.75L48.375 80.625L-1.40969e-06 96.75L-2.64317e-06 68.5312L38.3542 49.3542L44.4376 55.4376C40.3907 57.4772 36.3492 59.4902 32.313 61.4766C24.2925 65.4238 16.209 69.4341 8.0625 73.5073L8.0625 85.5381C16.167 82.8506 24.2295 80.1841 32.25 77.5386C40.2705 74.8931 48.333 72.1846 56.4375 69.4131L56.4375 101.726L48.375 105.757L48.375 117.788C51.0625 116.906 53.75 116.045 56.4375 115.206C59.125 114.366 61.8125 113.442 64.5 112.434C67.1875 113.4 69.875 114.303 72.5625 115.143C75.25 115.982 77.9375 116.864 80.625 117.788L80.625 105.757L72.5625 101.726Z" fill="black"/>
</svg>
