<svg width="108" height="108" viewBox="0 0 108 108" fill="none" xmlns="http://www.w3.org/2000/svg">
<path d="M108 13.5V20.25H67.5V23.625C67.5 25.0312 67.2363 26.3496 66.709 27.5801C66.1816 28.8105 65.4609 29.8828 64.5469 30.7969C63.6328 31.7109 62.5605 32.4316 61.3301 32.959C60.0996 33.4863 58.7812 33.75 57.375 33.75C55.9688 33.75 54.6504 33.4863 53.4199 32.959C52.1895 32.4316 51.1172 31.7109 50.2031 30.7969C49.2891 29.8828 48.5684 28.8105 48.041 27.5801C47.5137 26.3496 47.25 25.0312 47.25 23.625V20.25H0V13.5H47.25V10.125C47.25 8.71875 47.5137 7.40039 48.041 6.16992C48.5684 4.93945 49.2891 3.86719 50.2031 2.95312C51.1172 2.03906 52.1895 1.31836 53.4199 0.791016C54.6504 0.263672 55.9688 0 57.375 0C58.7812 0 60.0996 0.263672 61.3301 0.791016C62.5605 1.31836 63.6328 2.03906 64.5469 2.95312C65.4609 3.86719 66.1816 4.93945 66.709 6.16992C67.2363 7.40039 67.5 8.71875 67.5 10.125V13.5H108ZM84.375 67.5C85.7812 67.5 87.0996 67.7637 88.3301 68.291C89.5605 68.8184 90.6328 69.5391 91.5469 70.4531C92.4609 71.3672 93.1816 72.4395 93.709 73.6699C94.2363 74.9004 94.5 76.2188 94.5 77.625V81H108V87.75H94.5V91.125C94.5 92.5312 94.2363 93.8496 93.709 95.0801C93.1816 96.3105 92.4609 97.3828 91.5469 98.2969C90.6328 99.2109 89.5605 99.9316 88.3301 100.459C87.0996 100.986 85.7812 101.25 84.375 101.25C82.9688 101.25 81.6504 100.986 80.4199 100.459C79.1895 99.9316 78.1172 99.2109 77.2031 98.2969C76.2891 97.3828 75.5684 96.3105 75.041 95.0801C74.5137 93.8496 74.25 92.5312 74.25 91.125V87.75H0V81H74.25V77.625C74.25 76.2188 74.5137 74.9004 75.041 73.6699C75.5684 72.4395 76.2891 71.3672 77.2031 70.4531C78.1172 69.5391 79.1895 68.8184 80.4199 68.291C81.6504 67.7637 82.9688 67.5 84.375 67.5ZM23.625 33.75C25.0312 33.75 26.3496 34.0137 27.5801 34.541C28.8105 35.0684 29.8828 35.7891 30.7969 36.7031C31.7109 37.6172 32.4316 38.6895 32.959 39.9199C33.4863 41.1504 33.75 42.4688 33.75 43.875V47.25H108V54H33.75V57.375C33.75 58.7812 33.4863 60.0996 32.959 61.3301C32.4316 62.5605 31.7109 63.6328 30.7969 64.5469C29.8828 65.4609 28.8105 66.1816 27.5801 66.709C26.3496 67.2363 25.0312 67.5 23.625 67.5C22.2188 67.5 20.9004 67.2363 19.6699 66.709C18.4395 66.1816 17.3672 65.4609 16.4531 64.5469C15.5391 63.6328 14.8184 62.5605 14.291 61.3301C13.7637 60.0996 13.5 58.7812 13.5 57.375V54H0V47.25H13.5V43.875C13.5 42.4688 13.7637 41.1504 14.291 39.9199C14.8184 38.6895 15.5391 37.6172 16.4531 36.7031C17.3672 35.7891 18.4395 35.0684 19.6699 34.541C20.9004 34.0137 22.2188 33.75 23.625 33.75ZM27 43.875C27 42.9609 26.666 42.1699 25.998 41.502C25.3301 40.834 24.5391 40.5 23.625 40.5C22.7109 40.5 21.9199 40.834 21.252 41.502C20.584 42.1699 20.25 42.9609 20.25 43.875V57.375C20.25 58.2891 20.584 59.0801 21.252 59.748C21.9199 60.416 22.7109 60.75 23.625 60.75C24.5391 60.75 25.3301 60.416 25.998 59.748C26.666 59.0801 27 58.2891 27 57.375V43.875ZM60.75 10.125C60.75 9.21094 60.416 8.41992 59.748 7.75195C59.0801 7.08398 58.2891 6.75 57.375 6.75C56.4609 6.75 55.6699 7.08398 55.002 7.75195C54.334 8.41992 54 9.21094 54 10.125V23.625C54 24.5391 54.334 25.3301 55.002 25.998C55.6699 26.666 56.4609 27 57.375 27C58.2891 27 59.0801 26.666 59.748 25.998C60.416 25.3301 60.75 24.5391 60.75 23.625V10.125ZM87.75 77.625C87.75 76.7109 87.416 75.9199 86.748 75.252C86.0801 74.584 85.2891 74.25 84.375 74.25C83.4609 74.25 82.6699 74.584 82.002 75.252C81.334 75.9199 81 76.7109 81 77.625V91.125C81 92.0391 81.334 92.8301 82.002 93.498C82.6699 94.166 83.4609 94.5 84.375 94.5C85.2891 94.5 86.0801 94.166 86.748 93.498C87.416 92.8301 87.75 92.0391 87.75 91.125V77.625Z" fill="black"/>
</svg>
