<svg width="200" height="200" viewBox="0 0 200 200" fill="none" xmlns="http://www.w3.org/2000/svg">
<path d="M143.75 62.5C142.057 62.5 140.592 61.8815 139.355 60.6445C138.118 59.4076 137.5 57.9427 137.5 56.25C137.5 54.5573 138.118 53.0924 139.355 51.8555C140.592 50.6185 142.057 50 143.75 50C145.443 50 146.908 50.6185 148.145 51.8555C149.382 53.0924 150 54.5573 150 56.25C150 57.9427 149.382 59.4076 148.145 60.6445C146.908 61.8815 145.443 62.5 143.75 62.5ZM200 50V175H25V150H0V25H175V50H200ZM153.613 137.5L118.75 102.539L102.539 118.75L121.387 137.5H153.613ZM12.5 37.5V91.1133L43.75 59.9609L93.75 109.961L118.75 84.9609L162.5 128.613V37.5H12.5ZM103.613 137.5L43.75 77.5391L12.5 108.887V137.5H103.613ZM187.5 62.5H175V150H37.5V162.5H187.5V62.5Z" fill="black"/>
</svg>
