<svg width="125" height="117" viewBox="0 0 125 117" fill="none" xmlns="http://www.w3.org/2000/svg">
<path d="M117.188 55.273C118.368 55.6792 119.426 56.2479 120.362 56.9792C121.297 57.7104 122.131 58.5635 122.864 59.5384C123.596 60.5134 124.125 61.5696 124.451 62.707C124.776 63.8445 124.959 65.0429 125 66.3022V81.9015C125 86.7357 124.085 91.2855 122.254 95.5509C120.423 99.8164 117.9 103.533 114.685 106.702C111.471 109.871 107.748 112.369 103.517 114.197C99.2849 116.025 94.7278 116.959 89.8452 117C85.3695 117 81.1379 116.208 77.1504 114.624C73.1629 113.039 69.5823 110.846 66.4086 108.043C63.2349 105.24 60.6512 101.949 58.6575 98.1711C56.6638 94.3932 55.4024 90.2699 54.8735 85.8014H7.81727C6.71868 85.8014 5.70147 85.5982 4.76563 85.192C3.8298 84.7858 3.01603 84.2374 2.32433 83.5468C1.63262 82.8562 1.06299 82.0234 0.615413 81.0484C0.16784 80.0735 -0.0356024 79.0579 0.00508606 78.0017V7.80474C0.00508606 6.70791 0.208528 5.69233 0.615413 4.758C1.0223 3.82366 1.57159 3.0112 2.26329 2.3206C2.955 1.63001 3.78911 1.06128 4.76563 0.614426C5.74216 0.167571 6.75937 -0.0355453 7.81727 0.00507791H109.376C110.474 0.00507791 111.491 0.208194 112.427 0.614426C113.363 1.02066 114.177 1.56907 114.869 2.25967C115.56 2.95026 116.13 3.78304 116.577 4.758C117.025 5.73295 117.229 6.74853 117.188 7.80474V55.273ZM54.6904 70.202C54.6904 68.049 55.0972 66.0381 55.911 64.1695C56.7248 62.3008 57.8437 60.6353 59.2678 59.1728C60.6919 57.7104 62.3398 56.5932 64.2115 55.8214C66.0831 55.0496 68.1176 54.6433 70.3147 54.6027V35.1036C70.3147 33.4786 70.6199 31.9553 71.2302 30.5334C71.8405 29.1116 72.6747 27.8726 73.7326 26.8164C74.7905 25.7602 76.0315 24.9274 77.4556 24.3181C78.8796 23.7087 80.4055 23.4041 82.033 23.4041C83.6605 23.4041 85.166 23.7087 86.5494 24.3181C87.9328 24.9274 89.1738 25.7602 90.2724 26.8164C91.371 27.8726 92.2051 29.1116 92.7748 30.5334C93.3444 31.9553 93.6496 33.4786 93.6902 35.1036V44.8531C93.6902 48.0624 93.7106 51.3122 93.7513 54.6027H109.376V7.80474H7.81727V78.0017H54.6904V70.202ZM117.188 66.3022C117.188 65.246 116.801 64.332 116.028 63.5601C115.255 62.7883 114.34 62.4024 113.282 62.4024H85.9391V35.1036C85.9391 34.0473 85.5526 33.1333 84.7795 32.3615C84.0064 31.5896 83.0909 31.2037 82.033 31.2037C80.9751 31.2037 80.0596 31.5896 79.2865 32.3615C78.5135 33.1333 78.1269 34.0473 78.1269 35.1036V81.9015C78.1269 82.9577 77.7404 83.8717 76.9673 84.6436C76.1942 85.4154 75.2787 85.8014 74.2208 85.8014C73.1629 85.8014 72.2474 85.4154 71.4744 84.6436C70.7013 83.8717 70.3147 82.9577 70.3147 81.9015V62.4024C69.2161 62.4024 68.1989 62.6055 67.2631 63.0117C66.3273 63.418 65.5135 63.9664 64.8218 64.657C64.1301 65.3476 63.5604 66.1803 63.1129 67.1553C62.6653 68.1302 62.4619 69.1458 62.5025 70.202V81.9015C62.5025 85.6795 63.2146 89.2137 64.6387 92.5042C66.0628 95.7947 68.0158 98.6789 70.4978 101.157C72.9798 103.635 75.8687 105.585 79.1645 107.007C82.4602 108.428 86.0205 109.16 89.8452 109.2C93.6292 109.2 97.1691 108.489 100.465 107.068C103.761 105.646 106.65 103.696 109.132 101.218C111.614 98.7399 113.567 95.8556 114.991 92.5651C116.415 89.2746 117.147 85.7201 117.188 81.9015V66.3022Z" fill="black"/>
</svg>
