<svg width="118" height="206" viewBox="0 0 118 206" fill="none" xmlns="http://www.w3.org/2000/svg">
<g clip-path="url(#clip0)">
<path d="M84.8542 118.458L117.553 184.083H1.00006L44.7501 96.5834L70.2139 147.682L84.8542 118.458ZM84.8542 134.808L74.3155 155.828L76.9929 161.24L83.3161 154.917H94.8803L84.8542 134.808ZM52.1557 127.744L44.7501 112.933L37.3445 127.744L44.7501 135.15L52.1557 127.744ZM12.7921 176.792H76.6511L55.5736 134.637L44.7501 145.517L33.8695 134.637L12.7921 176.792ZM84.7403 176.792H105.761L98.5261 162.208H86.3923L80.4678 168.133L84.7403 176.792Z" fill="black"/>
</g>
<rect x="113" y="4" width="198" height="109" transform="rotate(90 113 4)" stroke="black" stroke-width="8"/>
<defs>
<clipPath id="clip0">
<rect width="116.667" height="116.667" fill="white" transform="translate(1.00006 82.0001)"/>
</clipPath>
</defs>
</svg>
