<svg width="88" height="88" viewBox="0 0 88 88" fill="none" xmlns="http://www.w3.org/2000/svg">
<path d="M82.9297 9.45312C83.6745 10.7422 84.3477 11.974 84.9492 13.1484C85.5508 14.3229 86.0951 15.5117 86.582 16.7148C87.069 17.918 87.4128 19.1641 87.6133 20.4531C87.8138 21.7422 87.9427 23.1745 88 24.75C88 27.013 87.7135 29.1901 87.1406 31.2812C86.5677 33.3724 85.737 35.349 84.6484 37.2109C83.5599 39.0729 82.2565 40.7487 80.7383 42.2383C79.2201 43.7279 77.5443 45.0169 75.7109 46.1055C73.8776 47.194 71.9154 48.0247 69.8242 48.5977C67.7331 49.1706 65.5417 49.4714 63.25 49.5C62.5911 49.5 61.9323 49.4714 61.2734 49.4141C60.6146 49.3568 59.9414 49.2708 59.2539 49.1562L24.6211 83.7891C23.2461 85.1641 21.6849 86.2096 19.9375 86.9258C18.1901 87.6419 16.3424 88 14.3945 88C12.418 88 10.556 87.6276 8.80859 86.8828C7.0612 86.138 5.54297 85.1068 4.25391 83.7891C2.96484 82.4714 1.93359 80.9388 1.16016 79.1914C0.386719 77.444 0 75.582 0 73.6055C0 71.6862 0.358073 69.8529 1.07422 68.1055C1.79036 66.3581 2.83594 64.7826 4.21094 63.3789L38.8438 28.7461C38.7292 28.0872 38.6432 27.4284 38.5859 26.7695C38.5286 26.1107 38.5 25.4375 38.5 24.75C38.5 22.487 38.7865 20.3099 39.3594 18.2188C39.9323 16.1276 40.763 14.151 41.8516 12.2891C42.9401 10.4271 44.2435 8.7513 45.7617 7.26172C47.2799 5.77214 48.9557 4.48307 50.7891 3.39453C52.6224 2.30599 54.5846 1.47526 56.6758 0.902344C58.7669 0.329427 60.9583 0.0286458 63.25 0C64.7969 0 66.2148 0.114583 67.5039 0.34375C68.793 0.572917 70.0534 0.93099 71.2852 1.41797C72.5169 1.90495 73.7057 2.4349 74.8516 3.00781C75.9974 3.58073 77.2292 4.26823 78.5469 5.07031L61.6172 22L66 26.3828L82.9297 9.45312ZM63.25 44C65.9141 44 68.4062 43.4987 70.7266 42.4961C73.0469 41.4935 75.0807 40.1185 76.8281 38.3711C78.5755 36.6237 79.9505 34.5898 80.9531 32.2695C81.9557 29.9492 82.4714 27.4427 82.5 24.75C82.5 22.6589 82.1562 20.6393 81.4688 18.6914L66 34.1172L53.8828 22L69.3086 6.53125C67.3607 5.84375 65.3411 5.5 63.25 5.5C60.5859 5.5 58.0938 6.0013 55.7734 7.00391C53.4531 8.00651 51.4193 9.38151 49.6719 11.1289C47.9245 12.8763 46.5495 14.9102 45.5469 17.2305C44.5443 19.5508 44.0286 22.0573 44 24.75C44 25.7526 44.0859 26.7266 44.2578 27.6719C44.4297 28.6172 44.6302 29.5625 44.8594 30.5078L8.12109 67.2891C7.29036 68.1198 6.64583 69.0794 6.1875 70.168C5.72917 71.2565 5.5 72.4023 5.5 73.6055C5.5 74.8086 5.72917 75.9544 6.1875 77.043C6.64583 78.1315 7.29036 79.0768 8.12109 79.8789C8.95182 80.681 9.89714 81.3112 10.957 81.7695C12.0169 82.2279 13.1628 82.4714 14.3945 82.5C15.5977 82.5 16.7435 82.2708 17.832 81.8125C18.9206 81.3542 19.8802 80.7096 20.7109 79.8789L57.4922 43.1406C58.4375 43.3698 59.3828 43.5703 60.3281 43.7422C61.2734 43.9141 62.2474 44 63.25 44Z" fill="black"/>
</svg>
