<svg width="18" height="24" viewBox="0 0 18 24" fill="none" xmlns="http://www.w3.org/2000/svg">
<path d="M1.5 10.5H16.5V24H1.5V10.5ZM3 22.5H15V12H3V22.5ZM7.5 19.5H10.5V21H7.5V19.5ZM16.4297 4.57031C15.4297 3.57812 14.293 2.82031 13.0195 2.29688C11.7461 1.76563 10.4062 1.5 9 1.5C7.59375 1.5 6.25391 1.76563 4.98047 2.29688C3.70703 2.82031 2.57031 3.57812 1.57031 4.57031L0.515625 3.51562C1.07812 2.95312 1.6875 2.45312 2.34375 2.01562C3 1.57813 3.6875 1.21094 4.40625 0.914062C5.13281 0.609375 5.87891 0.382813 6.64453 0.234375C7.41797 0.078125 8.20312 0 9 0C9.79688 0 10.5781 0.078125 11.3438 0.234375C12.1172 0.382813 12.8633 0.609375 13.582 0.914062C14.3086 1.21094 15 1.57813 15.6562 2.01562C16.3125 2.45312 16.9219 2.95312 17.4844 3.51562L16.4297 4.57031ZM14.3086 6.69141C13.5977 5.98047 12.7852 5.4375 11.8711 5.0625C10.957 4.6875 10 4.5 9 4.5C8 4.5 7.04297 4.6875 6.12891 5.0625C5.21484 5.4375 4.40234 5.98047 3.69141 6.69141L2.63672 5.63672C3.48828 4.78516 4.45703 4.13281 5.54297 3.67969C6.63672 3.22656 7.78906 3 9 3C10.2109 3 11.3594 3.22656 12.4453 3.67969C13.5391 4.13281 14.5117 4.78516 15.3633 5.63672L14.3086 6.69141ZM4.75781 7.75781C5.32812 7.1875 5.97656 6.75391 6.70312 6.45703C7.42969 6.15234 8.19531 6 9 6C9.80469 6 10.5703 6.15234 11.2969 6.45703C12.0234 6.75391 12.6719 7.1875 13.2422 7.75781L12.1875 8.8125C11.7656 8.39062 11.2773 8.06641 10.7227 7.83984C10.1758 7.61328 9.60156 7.5 9 7.5C8.39844 7.5 7.82031 7.61328 7.26562 7.83984C6.71875 8.06641 6.23438 8.39062 5.8125 8.8125L4.75781 7.75781Z" fill="black"/>
</svg>
