<svg width="60" height="60" viewBox="0 0 60 60" fill="none" xmlns="http://www.w3.org/2000/svg">
<path d="M52.2363 28.9453C52.2363 29.1211 52.2363 29.2969 52.2363 29.4727C52.2559 29.6484 52.2656 29.8242 52.2656 30C52.2656 30.1758 52.2559 30.3516 52.2363 30.5273C52.2363 30.7031 52.2363 30.8789 52.2363 31.0547L59.8242 35.7715L55.166 46.9922L46.4648 45C45.9961 45.5078 45.5078 45.9961 45 46.4648L46.9922 55.166L35.7715 59.8242L31.0547 52.2363C30.8789 52.2363 30.7031 52.2461 30.5273 52.2656C30.3516 52.2656 30.1758 52.2656 30 52.2656C29.8242 52.2656 29.6484 52.2656 29.4727 52.2656C29.2969 52.2461 29.1211 52.2363 28.9453 52.2363L24.2285 59.8242L13.0078 55.166L15 46.4648C14.4922 45.9961 14.0039 45.5078 13.5352 45L4.83398 46.9922L0.175781 35.7715L7.76367 31.0547C7.76367 30.8789 7.75391 30.7031 7.73438 30.5273C7.73438 30.3516 7.73438 30.1758 7.73438 30C7.73438 29.8242 7.73438 29.6484 7.73438 29.4727C7.75391 29.2969 7.76367 29.1211 7.76367 28.9453L0.175781 24.2285L4.83398 13.0078L13.5352 15C14.0039 14.4922 14.4922 14.0039 15 13.5352L13.0078 4.83398L24.2285 0.175781L28.9453 7.76367C29.1211 7.76367 29.2969 7.76367 29.4727 7.76367C29.6484 7.74414 29.8242 7.73438 30 7.73438C30.1758 7.73438 30.3516 7.74414 30.5273 7.76367C30.7031 7.76367 30.8789 7.76367 31.0547 7.76367L35.7715 0.175781L46.9922 4.83398L45 13.5352C45.5078 14.0039 45.9961 14.4922 46.4648 15L55.166 13.0078L59.8242 24.2285L52.2363 28.9453ZM48.8086 32.7539C48.8477 32.2852 48.8867 31.8262 48.9258 31.377C48.9648 30.9082 48.9844 30.4395 48.9844 29.9707C48.9844 29.5215 48.9648 29.0625 48.9258 28.5938C48.8867 28.125 48.8477 27.666 48.8086 27.2168L55.7227 22.9102L53.2031 16.8164L45.2637 18.6621C44.6582 17.9199 44.0332 17.2363 43.3887 16.6113C42.7637 15.9863 42.0801 15.3613 41.3379 14.7363L43.1836 6.79688L37.0898 4.27734L32.7539 11.1914C32.3047 11.1523 31.8457 11.1133 31.377 11.0742C30.9082 11.0352 30.4492 11.0156 30 11.0156C29.5312 11.0156 29.0625 11.0352 28.5938 11.0742C28.1445 11.1133 27.6855 11.1523 27.2168 11.1914L22.9102 4.27734L16.8164 6.79688L18.6621 14.7363C17.9199 15.3418 17.2363 15.9668 16.6113 16.6113C15.9863 17.2363 15.3613 17.9199 14.7363 18.6621L6.79688 16.8164L4.27734 22.9102L11.1914 27.2461C11.1523 27.7148 11.1133 28.1836 11.0742 28.6523C11.0352 29.1016 11.0156 29.5605 11.0156 30.0293C11.0156 30.4785 11.0352 30.9375 11.0742 31.4062C11.1133 31.875 11.1523 32.334 11.1914 32.7832L4.27734 37.0898L6.79688 43.1836L14.7363 41.3379C15.3418 42.0801 15.957 42.7637 16.582 43.3887C17.2266 44.0137 17.9199 44.6387 18.6621 45.2637L16.8164 53.2031L22.9102 55.7227L27.2461 48.8086C27.6953 48.8477 28.1543 48.8867 28.623 48.9258C29.0918 48.9648 29.5508 48.9844 30 48.9844C30.4688 48.9844 30.9277 48.9648 31.377 48.9258C31.8457 48.8867 32.3145 48.8477 32.7832 48.8086L37.0898 55.7227L43.1836 53.2031L41.3379 45.2637C42.0801 44.6582 42.7637 44.043 43.3887 43.418C44.0137 42.7734 44.6387 42.0801 45.2637 41.3379L53.2031 43.1836L55.7227 37.0898L48.8086 32.7539ZM30 18.9844C31.5234 18.9844 32.9492 19.2773 34.2773 19.8633C35.625 20.4297 36.7969 21.2109 37.793 22.207C38.7891 23.2031 39.5703 24.375 40.1367 25.7227C40.7227 27.0508 41.0156 28.4766 41.0156 30C41.0156 31.5234 40.7227 32.959 40.1367 34.3066C39.5703 35.6348 38.7891 36.7969 37.793 37.793C36.7969 38.7891 35.625 39.5801 34.2773 40.166C32.9492 40.7324 31.5234 41.0156 30 41.0156C28.4766 41.0156 27.041 40.7324 25.6934 40.166C24.3652 39.5801 23.2031 38.7891 22.207 37.793C21.2109 36.7969 20.4199 35.6348 19.834 34.3066C19.2676 32.959 18.9844 31.5234 18.9844 30C18.9844 28.4766 19.2676 27.0508 19.834 25.7227C20.4199 24.375 21.2109 23.2031 22.207 22.207C23.2031 21.2109 24.3652 20.4297 25.6934 19.8633C27.041 19.2773 28.4766 18.9844 30 18.9844ZM30 37.7344C31.0742 37.7344 32.0801 37.5391 33.0176 37.1484C33.9551 36.7383 34.7754 36.1816 35.4785 35.4785C36.1816 34.7754 36.7285 33.9551 37.1191 33.0176C37.5293 32.0801 37.7344 31.0742 37.7344 30C37.7344 28.9258 37.5293 27.9199 37.1191 26.9824C36.7285 26.0449 36.1816 25.2246 35.4785 24.5215C34.7754 23.8184 33.9551 23.2715 33.0176 22.8809C32.0801 22.4707 31.0742 22.2656 30 22.2656C28.9258 22.2656 27.9199 22.4707 26.9824 22.8809C26.0449 23.2715 25.2246 23.8184 24.5215 24.5215C23.8184 25.2246 23.2617 26.0449 22.8516 26.9824C22.4609 27.9199 22.2656 28.9258 22.2656 30C22.2656 31.0742 22.4609 32.0801 22.8516 33.0176C23.2617 33.9551 23.8184 34.7754 24.5215 35.4785C25.2246 36.1816 26.0449 36.7383 26.9824 37.1484C27.9199 37.5391 28.9258 37.7344 30 37.7344Z" fill="#7957D5"/>
</svg>
