<svg width="23" height="23" viewBox="0 0 23 23" fill="none" xmlns="http://www.w3.org/2000/svg">
<path d="M11.25 0C12.2812 0 13.2734 0.136719 14.2266 0.410156C15.1875 0.675781 16.0859 1.05469 16.9219 1.54688C17.7578 2.03125 18.5156 2.61719 19.1953 3.30469C19.8828 3.98438 20.4688 4.74219 20.9531 5.57812C21.4453 6.41406 21.8242 7.3125 22.0898 8.27344C22.3633 9.22656 22.5 10.2188 22.5 11.25C22.5 12.2812 22.3633 13.2773 22.0898 14.2383C21.8242 15.1914 21.4453 16.0859 20.9531 16.9219C20.4688 17.7578 19.8828 18.5195 19.1953 19.207C18.5156 19.8867 17.7578 20.4727 16.9219 20.9648C16.0859 21.4492 15.1875 21.8281 14.2266 22.1016C13.2734 22.3672 12.2812 22.5 11.25 22.5C10.2188 22.5 9.22266 22.3672 8.26172 22.1016C7.30859 21.8281 6.41406 21.4492 5.57812 20.9648C4.74219 20.4727 3.98047 19.8867 3.29297 19.207C2.61328 18.5195 2.02734 17.7578 1.53516 16.9219C1.05078 16.0859 0.671875 15.1914 0.398438 14.2383C0.132812 13.2773 0 12.2812 0 11.25C0 10.2188 0.132812 9.22656 0.398438 8.27344C0.671875 7.3125 1.05078 6.41406 1.53516 5.57812C2.02734 4.74219 2.61328 3.98438 3.29297 3.30469C3.98047 2.61719 4.74219 2.03125 5.57812 1.54688C6.41406 1.05469 7.30859 0.675781 8.26172 0.410156C9.22266 0.136719 10.2188 0 11.25 0ZM11.25 21C12.1484 21 13.0117 20.8828 13.8398 20.6484C14.668 20.4141 15.4414 20.0859 16.1602 19.6641C16.8867 19.2422 17.5469 18.7344 18.1406 18.1406C18.7344 17.5469 19.2422 16.8906 19.6641 16.1719C20.0859 15.4453 20.4141 14.668 20.6484 13.8398C20.8828 13.0117 21 12.1484 21 11.25C21 10.3516 20.8828 9.48828 20.6484 8.66016C20.4141 7.83203 20.0859 7.05859 19.6641 6.33984C19.2422 5.61328 18.7344 4.95313 18.1406 4.35938C17.5469 3.76562 16.8867 3.25781 16.1602 2.83594C15.4414 2.41406 14.668 2.08594 13.8398 1.85156C13.0117 1.61719 12.1484 1.5 11.25 1.5C10.3516 1.5 9.48828 1.61719 8.66016 1.85156C7.83203 2.08594 7.05469 2.41406 6.32812 2.83594C5.60938 3.25781 4.95312 3.76562 4.35938 4.35938C3.76562 4.95313 3.25781 5.61328 2.83594 6.33984C2.41406 7.05859 2.08594 7.83203 1.85156 8.66016C1.61719 9.48828 1.5 10.3516 1.5 11.25C1.5 12.1484 1.61719 13.0117 1.85156 13.8398C2.08594 14.668 2.41406 15.4453 2.83594 16.1719C3.25781 16.8906 3.76562 17.5469 4.35938 18.1406C4.95312 18.7344 5.60938 19.2422 6.32812 19.6641C7.05469 20.0859 7.83203 20.4141 8.66016 20.6484C9.48828 20.8828 10.3516 21 11.25 21ZM13.2656 10.2656C13.4219 10.5781 13.5 10.9062 13.5 11.25C13.5 11.5625 13.4414 11.8555 13.3242 12.1289C13.207 12.4023 13.0469 12.6406 12.8438 12.8438C12.6406 13.0469 12.4023 13.207 12.1289 13.3242C11.8555 13.4414 11.5625 13.5 11.25 13.5C10.9375 13.5 10.6445 13.4414 10.3711 13.3242C10.0977 13.207 9.85938 13.0469 9.65625 12.8438C9.45312 12.6406 9.29297 12.4023 9.17578 12.1289C9.05859 11.8555 9 11.5625 9 11.25C9 10.9375 9.05859 10.6445 9.17578 10.3711C9.29297 10.0977 9.45312 9.85938 9.65625 9.65625C9.85938 9.45312 10.0977 9.29297 10.3711 9.17578C10.6445 9.05859 10.9375 9 11.25 9C11.5938 9 11.9219 9.07812 12.2344 9.23438L12.2227 9.22266L16.5352 4.91016L17.5898 5.96484L13.2773 10.2773L13.2656 10.2656ZM11.25 12C11.4531 12 11.6289 11.9258 11.7773 11.7773C11.9258 11.6289 12 11.4531 12 11.25C12 11.0469 11.9258 10.8711 11.7773 10.7227C11.6289 10.5742 11.4531 10.5 11.25 10.5C11.0469 10.5 10.8711 10.5742 10.7227 10.7227C10.5742 10.8711 10.5 11.0469 10.5 11.25C10.5 11.4531 10.5742 11.6289 10.7227 11.7773C10.8711 11.9258 11.0469 12 11.25 12ZM18.75 7.875C18.9922 8.40625 19.1719 8.95703 19.2891 9.52734C19.4141 10.0898 19.4766 10.6641 19.4766 11.25C19.4766 12.3438 19.2695 13.3984 18.8555 14.4141C18.4492 15.4219 17.8594 16.3125 17.0859 17.0859L16.0195 16.0195C16.6523 15.3867 17.1406 14.6641 17.4844 13.8516C17.8281 13.0391 18 12.1836 18 11.2852C18 10.3164 17.7969 9.38281 17.3906 8.48438L18.75 7.875ZM14.0156 5.10938C13.1172 4.70312 12.1836 4.5 11.2148 4.5C10.5977 4.5 10.0039 4.58203 9.43359 4.74609C8.86328 4.90234 8.32812 5.12891 7.82812 5.42578C7.32812 5.72266 6.875 6.07813 6.46875 6.49219C6.0625 6.89844 5.71094 7.35156 5.41406 7.85156C5.125 8.35156 4.89844 8.89062 4.73438 9.46875C4.57812 10.0391 4.5 10.6328 4.5 11.25C4.5 12.1484 4.67188 13.0117 5.01562 13.8398C5.35938 14.6602 5.84766 15.3867 6.48047 16.0195L5.41406 17.0859C4.63281 16.3047 4.03516 15.4141 3.62109 14.4141C3.20703 13.4062 3 12.3516 3 11.25C3 10.4922 3.09766 9.76172 3.29297 9.05859C3.48828 8.35547 3.76562 7.69922 4.125 7.08984C4.48438 6.48047 4.91406 5.92578 5.41406 5.42578C5.91406 4.92578 6.46875 4.5 7.07812 4.14844C7.6875 3.78906 8.34375 3.51172 9.04688 3.31641C9.75 3.12109 10.4844 3.02344 11.25 3.02344C11.8359 3.02344 12.4102 3.08594 12.9727 3.21094C13.543 3.32812 14.0938 3.50781 14.625 3.75L14.0156 5.10938Z" fill="black"/>
</svg>
